<?xml version="1.0" encoding="UTF-8" standalone="no"?>
<!-- Created with Inkscape (http://www.inkscape.org/) -->

<svg
   width="42.456142mm"
   height="18.568407mm"
   viewBox="0 0 42.456142 18.568407"
   version="1.1"
   id="svg5"
   xmlns="http://www.w3.org/2000/svg"
   xmlns:svg="http://www.w3.org/2000/svg">
  <defs
     id="defs2" />
  <g
     id="layer1"
     transform="translate(-34.959003,-110.14438)">
    <text
       xml:space="preserve"
       style="font-size:12.7px;white-space:pre;inline-size:186.741;display:inline;fill:#000000;stroke-width:0.264583"
       x="34.908581"
       y="126.15112"
       id="text113"><tspan
         x="34.908581"
         y="126.15112"
         id="tspan332"><tspan
           style="font-weight:bold;font-family:Montserrat;-inkscape-font-specification:'Montserrat Bold'"
           id="tspan330">T   Tok</tspan></tspan></text>
    <path
       style="fill:#ffcc00;fill-opacity:0;stroke:#ffda04;stroke-width:1.92151;stroke-linecap:round;stroke-linejoin:round;stroke-dasharray:none;stroke-opacity:1"
       id="path1084"
       d="m 121.70115,52.952842 a 4.8685632,4.626965 0 0 1 -3.10774,5.508526 4.8685632,4.626965 0 0 1 -6.04609,-2.459672 4.8685632,4.626965 0 0 1 2.04857,-5.939418"
       transform="matrix(0.71696658,0.69710754,-0.6463141,0.76307148,0,0)" />
    <path
       style="fill:#ffcc00;fill-opacity:0;stroke:#ffda04;stroke-width:1.74459;stroke-linecap:round;stroke-linejoin:round;stroke-dasharray:none;stroke-opacity:1"
       d="m 49.595808,123.20571 c 3.470705,1.82461 3.470705,1.82461 3.470705,1.82461 v 0 z"
       id="path4821" />
    <path
       style="fill:#ffcc00;fill-opacity:0;stroke:#ffda04;stroke-width:1.6982;stroke-linecap:round;stroke-linejoin:round;stroke-dasharray:none;stroke-opacity:1"
       d="m 49.556448,122.93544 c 3.445722,-1.74141 3.445722,-1.74141 3.445722,-1.74141 v 0 z"
       id="path4821-0" />
    <path
       style="fill:#ffcc00;fill-opacity:0;stroke:#ffda04;stroke-width:2.29225;stroke-linecap:round;stroke-linejoin:round;stroke-dasharray:none;stroke-opacity:1"
       d="m 49.818966,117.91183 c -0.11735,-15.53749 0,0 0,0 z"
       id="path4896" />
    <path
       style="fill:#ffcc00;fill-opacity:0;stroke:#ffda04;stroke-width:2.01006;stroke-linecap:round;stroke-linejoin:round;stroke-dasharray:none;stroke-opacity:1"
       d="M 49.790178,111.7619 Z"
       id="path4898" />
    <path
       style="fill:#ffcc00;fill-opacity:0;stroke:#ffda04;stroke-width:2.51667;stroke-linecap:round;stroke-linejoin:round;stroke-dasharray:none;stroke-opacity:1"
       id="path4904"
       d="m 117.85124,34.454115 a 4.1693916,5.0189266 0 0 1 -2.33343,1.988189"
       transform="matrix(0.66261973,0.748956,-0.73010279,0.68333734,0,0)" />
    <ellipse
       style="fill:#000000;fill-opacity:1;stroke:#000000;stroke-width:0.377793;stroke-linecap:round;stroke-linejoin:round;stroke-dasharray:none;stroke-opacity:1"
       id="path4962"
       cx="46.716343"
       cy="122.81138"
       rx="0.77880555"
       ry="1.3343509" />
  </g>
</svg>
